<svg width="6" height="6" viewBox="0 0 6 6" fill="none" xmlns="http://www.w3.org/2000/svg">
<g clip-path="url(#clip0_2517_404)">
<path d="M2.9375 5.13068C2.53646 5.13068 2.17022 5.03291 1.83878 4.83736C1.50734 4.63849 1.24219 4.37334 1.04332 4.0419C0.847775 3.71046 0.75 3.34422 0.75 2.94318C0.75 2.53883 0.847775 2.17259 1.04332 1.84446C1.24219 1.51302 1.50734 1.24953 1.83878 1.05398C2.17022 0.855115 2.53646 0.755684 2.9375 0.755684C3.34186 0.755684 3.7081 0.855115 4.03622 1.05398C4.36766 1.24953 4.63116 1.51302 4.8267 1.84446C5.02557 2.17259 5.125 2.53883 5.125 2.94318C5.125 3.34422 5.02557 3.71046 4.8267 4.0419C4.63116 4.37334 4.36766 4.63849 4.03622 4.83736C3.7081 5.03291 3.34186 5.13068 2.9375 5.13068Z" fill="#4A5568"/>
</g>
<defs>
<clipPath id="clip0_2517_404">
<rect width="6" height="6" fill="white"/>
</clipPath>
</defs>
</svg>
